<svg width="98" height="44" viewBox="0 0 98 44" fill="none" xmlns="http://www.w3.org/2000/svg">
<path d="M2.4 12.17H13.5V14.09H2.4V12.17ZM2.64 23H0.42V2H14.82V3.92H2.64V23ZM18.9544 23V0.739999H21.0844V23H18.9544ZM33.431 23.15C31.911 23.15 30.541 22.81 29.321 22.13C28.121 21.43 27.171 20.48 26.471 19.28C25.771 18.06 25.421 16.67 25.421 15.11C25.421 13.53 25.771 12.14 26.471 10.94C27.171 9.74 28.121 8.8 29.321 8.12C30.521 7.44 31.891 7.1 33.431 7.1C34.991 7.1 36.371 7.44 37.571 8.12C38.791 8.8 39.741 9.74 40.421 10.94C41.121 12.14 41.471 13.53 41.471 15.11C41.471 16.67 41.121 18.06 40.421 19.28C39.741 20.48 38.791 21.43 37.571 22.13C36.351 22.81 34.971 23.15 33.431 23.15ZM33.431 21.26C34.571 21.26 35.581 21.01 36.461 20.51C37.341 19.99 38.031 19.27 38.531 18.35C39.051 17.41 39.311 16.33 39.311 15.11C39.311 13.87 39.051 12.79 38.531 11.87C38.031 10.95 37.341 10.24 36.461 9.74C35.581 9.22 34.581 8.96 33.461 8.96C32.341 8.96 31.341 9.22 30.461 9.74C29.581 10.24 28.881 10.95 28.361 11.87C27.841 12.79 27.581 13.87 27.581 15.11C27.581 16.33 27.841 17.41 28.361 18.35C28.881 19.27 29.581 19.99 30.461 20.51C31.341 21.01 32.331 21.26 33.431 21.26ZM48.5902 23L42.6502 7.25H44.6902L50.0902 21.86H49.1602L54.7102 7.25H56.5402L62.0302 21.86H61.1002L66.5902 7.25H68.5402L62.5702 23H60.5602L55.2802 9.26H55.9102L50.6002 23H48.5902ZM77.9979 23.15C76.3579 23.15 74.9179 22.81 73.6779 22.13C72.4379 21.43 71.4679 20.48 70.7679 19.28C70.0679 18.06 69.7179 16.67 69.7179 15.11C69.7179 13.55 70.0479 12.17 70.7079 10.97C71.3879 9.77 72.3079 8.83 73.4679 8.15C74.6479 7.45 75.9679 7.1 77.4279 7.1C78.9079 7.1 80.2179 7.44 81.3579 8.12C82.5179 8.78 83.4279 9.72 84.0879 10.94C84.7479 12.14 85.0779 13.53 85.0779 15.11C85.0779 15.21 85.0679 15.32 85.0479 15.44C85.0479 15.54 85.0479 15.65 85.0479 15.77H71.3379V14.18H83.9079L83.0679 14.81C83.0679 13.67 82.8179 12.66 82.3179 11.78C81.8379 10.88 81.1779 10.18 80.3379 9.68C79.4979 9.18 78.5279 8.93 77.4279 8.93C76.3479 8.93 75.3779 9.18 74.5179 9.68C73.6579 10.18 72.9879 10.88 72.5079 11.78C72.0279 12.68 71.7879 13.71 71.7879 14.87V15.2C71.7879 16.4 72.0479 17.46 72.5679 18.38C73.1079 19.28 73.8479 19.99 74.7879 20.51C75.7479 21.01 76.8379 21.26 78.0579 21.26C79.0179 21.26 79.9079 21.09 80.7279 20.75C81.5679 20.41 82.2879 19.89 82.8879 19.19L84.0879 20.57C83.3879 21.41 82.5079 22.05 81.4479 22.49C80.4079 22.93 79.2579 23.15 77.9979 23.15ZM89.4134 23V7.25H91.4534V11.54L91.2434 10.79C91.6834 9.59 92.4234 8.68 93.4634 8.06C94.5034 7.42 95.7934 7.1 97.3334 7.1V9.17C97.2534 9.17 97.1734 9.17 97.0934 9.17C97.0134 9.15 96.9334 9.14 96.8534 9.14C95.1934 9.14 93.8934 9.65 92.9534 10.67C92.0134 11.67 91.5434 13.1 91.5434 14.96V23H89.4134ZM0.42 43V22H2.64V41.08H14.4V43H0.42ZM23.8216 43.15C22.3016 43.15 20.9316 42.81 19.7116 42.13C18.5116 41.43 17.5616 40.48 16.8616 39.28C16.1616 38.06 15.8116 36.67 15.8116 35.11C15.8116 33.53 16.1616 32.14 16.8616 30.94C17.5616 29.74 18.5116 28.8 19.7116 28.12C20.9116 27.44 22.2816 27.1 23.8216 27.1C25.3816 27.1 26.7616 27.44 27.9616 28.12C29.1816 28.8 30.1316 29.74 30.8116 30.94C31.5116 32.14 31.8616 33.53 31.8616 35.11C31.8616 36.67 31.5116 38.06 30.8116 39.28C30.1316 40.48 29.1816 41.43 27.9616 42.13C26.7416 42.81 25.3616 43.15 23.8216 43.15ZM23.8216 41.26C24.9616 41.26 25.9716 41.01 26.8516 40.51C27.7316 39.99 28.4216 39.27 28.9216 38.35C29.4416 37.41 29.7016 36.33 29.7016 35.11C29.7016 33.87 29.4416 32.79 28.9216 31.87C28.4216 30.95 27.7316 30.24 26.8516 29.74C25.9716 29.22 24.9716 28.96 23.8516 28.96C22.7316 28.96 21.7316 29.22 20.8516 29.74C19.9716 30.24 19.2716 30.95 18.7516 31.87C18.2316 32.79 17.9716 33.87 17.9716 35.11C17.9716 36.33 18.2316 37.41 18.7516 38.35C19.2716 39.27 19.9716 39.99 20.8516 40.51C21.7316 41.01 22.7216 41.26 23.8216 41.26ZM39.8208 43L32.8308 27.25H35.0508L41.4708 41.86H40.4208L46.9308 27.25H49.0308L42.0108 43H39.8208ZM58.2811 43.15C56.6411 43.15 55.2011 42.81 53.9611 42.13C52.7211 41.43 51.7511 40.48 51.0511 39.28C50.3511 38.06 50.0011 36.67 50.0011 35.11C50.0011 33.55 50.3311 32.17 50.9911 30.97C51.6711 29.77 52.5911 28.83 53.7511 28.15C54.9311 27.45 56.2511 27.1 57.7111 27.1C59.1911 27.1 60.5011 27.44 61.6411 28.12C62.8011 28.78 63.7111 29.72 64.3711 30.94C65.0311 32.14 65.3611 33.53 65.3611 35.11C65.3611 35.21 65.3511 35.32 65.3311 35.44C65.3311 35.54 65.3311 35.65 65.3311 35.77H51.6211V34.18H64.1911L63.3511 34.81C63.3511 33.67 63.1011 32.66 62.6011 31.78C62.1211 30.88 61.4611 30.18 60.6211 29.68C59.7811 29.18 58.8111 28.93 57.7111 28.93C56.6311 28.93 55.6611 29.18 54.8011 29.68C53.9411 30.18 53.2711 30.88 52.7911 31.78C52.3111 32.68 52.0711 33.71 52.0711 34.87V35.2C52.0711 36.4 52.3311 37.46 52.8511 38.38C53.3911 39.28 54.1311 39.99 55.0711 40.51C56.0311 41.01 57.1211 41.26 58.3411 41.26C59.3011 41.26 60.1911 41.09 61.0111 40.75C61.8511 40.41 62.5711 39.89 63.1711 39.19L64.3711 40.57C63.6711 41.41 62.7911 42.05 61.7311 42.49C60.6911 42.93 59.5411 43.15 58.2811 43.15ZM69.6966 43V27.25H71.7366V31.54L71.5266 30.79C71.9666 29.59 72.7066 28.68 73.7466 28.06C74.7866 27.42 76.0766 27.1 77.6166 27.1V29.17C77.5366 29.17 77.4566 29.17 77.3766 29.17C77.2966 29.15 77.2166 29.14 77.1366 29.14C75.4766 29.14 74.1766 29.65 73.2366 30.67C72.2966 31.67 71.8266 33.1 71.8266 34.96V43H69.6966Z" fill="#E99FB7"/>
</svg>
