<svg aria-hidden="true" style="position: absolute; width: 0; height: 0; overflow: hidden;" version="1.1" xmlns="http://www.w3.org/2000/svg" xmlns:xlink="http://www.w3.org/1999/xlink">
<defs>
<symbol id="icon-inst" viewBox="0 0 28 32">
<path d="M8.133 0.732c1.476-0.076 1.946-0.093 5.705-0.093s4.229 0.018 5.704 0.093c1.474 0.074 2.481 0.337 3.361 0.717 0.922 0.389 1.759 0.997 2.45 1.783 0.705 0.771 1.248 1.703 1.595 2.733 0.342 0.983 0.576 2.106 0.644 3.748 0.068 1.649 0.083 2.174 0.083 6.367 0 4.194-0.016 4.719-0.083 6.366-0.067 1.642-0.302 2.765-0.644 3.748-0.347 1.030-0.892 1.964-1.595 2.736-0.692 0.786-1.528 1.392-2.45 1.78-0.881 0.382-1.887 0.643-3.359 0.719-1.477 0.076-1.947 0.093-5.706 0.093s-4.229-0.018-5.705-0.093c-1.472-0.074-2.478-0.337-3.359-0.719-0.923-0.387-1.76-0.995-2.452-1.78-0.704-0.771-1.249-1.704-1.596-2.734-0.341-0.983-0.575-2.105-0.643-3.748-0.068-1.649-0.083-2.174-0.083-6.367 0-4.194 0.016-4.719 0.083-6.364s0.302-2.768 0.643-3.751c0.348-1.030 0.893-1.963 1.598-2.734 0.691-0.785 1.527-1.393 2.449-1.781 0.881-0.38 1.888-0.641 3.36-0.717zM19.43 3.512c-1.459-0.074-1.897-0.090-5.592-0.090s-4.133 0.015-5.592 0.090c-1.35 0.069-2.082 0.32-2.57 0.532-0.645 0.281-1.107 0.613-1.591 1.154-0.459 0.498-0.812 1.105-1.034 1.776-0.19 0.545-0.415 1.362-0.477 2.868-0.067 1.628-0.080 2.117-0.080 6.239s0.014 4.611 0.080 6.239c0.062 1.506 0.287 2.323 0.477 2.868 0.221 0.67 0.575 1.277 1.034 1.776 0.447 0.512 0.991 0.907 1.591 1.154 0.488 0.212 1.22 0.463 2.57 0.532 1.459 0.074 1.896 0.090 5.592 0.090s4.133-0.015 5.592-0.090c1.35-0.069 2.082-0.32 2.57-0.532 0.645-0.281 1.107-0.613 1.591-1.154 0.459-0.498 0.813-1.106 1.034-1.776 0.19-0.545 0.415-1.362 0.477-2.868 0.067-1.628 0.081-2.117 0.081-6.239s-0.014-4.611-0.081-6.239c-0.062-1.506-0.287-2.323-0.477-2.868-0.252-0.72-0.55-1.235-1.034-1.776-0.447-0.512-0.99-0.906-1.591-1.154-0.488-0.212-1.22-0.463-2.57-0.532zM12.070 20.84c0.987 0.458 2.086 0.52 3.11 0.175s1.908-1.076 2.502-2.068c0.594-0.992 0.861-2.183 0.755-3.37s-0.577-2.297-1.335-3.139c-0.483-0.538-1.066-0.951-1.709-1.207s-1.328-0.351-2.008-0.276c-0.679 0.075-1.335 0.317-1.921 0.708s-1.086 0.923-1.465 1.556c-0.379 0.633-0.628 1.352-0.728 2.106s-0.050 1.522 0.148 2.251c0.198 0.729 0.538 1.4 0.997 1.964s1.023 1.009 1.653 1.3zM8.808 10.468c0.661-0.737 1.445-1.322 2.308-1.72s1.788-0.604 2.722-0.604 1.859 0.205 2.722 0.604c0.863 0.399 1.647 0.983 2.308 1.72s1.184 1.612 1.542 2.575c0.357 0.963 0.541 1.995 0.541 3.037s-0.184 2.074-0.541 3.037c-0.357 0.963-0.881 1.838-1.542 2.575-1.334 1.488-3.143 2.325-5.029 2.325s-3.696-0.836-5.029-2.325c-1.334-1.488-2.083-3.507-2.083-5.612s0.749-4.124 2.083-5.612zM22.528 9.326c0.164-0.172 0.295-0.38 0.385-0.609s0.139-0.478 0.142-0.729-0.039-0.5-0.123-0.733c-0.085-0.233-0.21-0.444-0.369-0.622s-0.349-0.318-0.557-0.412c-0.208-0.094-0.432-0.141-0.657-0.137s-0.447 0.058-0.653 0.159c-0.206 0.101-0.392 0.247-0.546 0.43-0.3 0.355-0.465 0.827-0.458 1.315s0.183 0.954 0.492 1.3c0.309 0.345 0.727 0.542 1.165 0.549s0.86-0.176 1.179-0.511z"></path>
</symbol>
<symbol id="icon-meta" viewBox="0 0 31 32">
<path d="M15.543 0.676c-8.549 0-15.543 7.007-15.543 15.637 0 7.803 5.689 14.279 13.118 15.449v-10.924h-3.948v-4.526h3.948v-3.449c0-3.917 2.316-6.070 5.875-6.070 1.694 0 3.466 0.296 3.466 0.296v3.855h-1.958c-1.927 0-2.534 1.202-2.534 2.434v2.934h4.321l-0.699 4.526h-3.622v10.924c3.663-0.581 6.998-2.457 9.403-5.29s3.723-6.436 3.715-10.159c0-8.63-6.994-15.637-15.543-15.637z"></path>
</symbol>
<symbol id="icon-logo" viewBox="0 0 71 32">
<path d="M1.745 8.851h8.073v1.396h-8.073v-1.396zM1.92 16.727h-1.615v-15.273h10.473v1.396h-8.858v13.876zM13.785 16.727v-16.189h1.549v16.189h-1.549zM24.313 16.836c-1.105 0-2.102-0.247-2.989-0.742-0.873-0.509-1.564-1.2-2.073-2.073-0.509-0.887-0.764-1.898-0.764-3.033 0-1.149 0.255-2.16 0.764-3.033s1.2-1.556 2.073-2.051c0.873-0.495 1.869-0.742 2.989-0.742 1.135 0 2.138 0.247 3.011 0.742 0.887 0.495 1.578 1.178 2.073 2.051 0.509 0.873 0.764 1.884 0.764 3.033 0 1.135-0.255 2.145-0.764 3.033-0.495 0.873-1.185 1.564-2.073 2.073-0.887 0.495-1.891 0.742-3.011 0.742zM24.313 15.462c0.829 0 1.564-0.182 2.204-0.545 0.64-0.378 1.142-0.902 1.505-1.571 0.378-0.684 0.567-1.469 0.567-2.356 0-0.902-0.189-1.687-0.567-2.356-0.364-0.669-0.865-1.185-1.505-1.549-0.64-0.378-1.367-0.567-2.182-0.567s-1.542 0.189-2.182 0.567c-0.64 0.364-1.149 0.88-1.527 1.549s-0.567 1.455-0.567 2.356c0 0.887 0.189 1.673 0.567 2.356 0.378 0.669 0.887 1.193 1.527 1.571 0.64 0.364 1.36 0.545 2.16 0.545zM35.338 16.727l-4.32-11.455h1.484l3.927 10.625h-0.676l4.036-10.625h1.331l3.993 10.625h-0.676l3.993-10.625h1.418l-4.342 11.455h-1.462l-3.84-9.993h0.458l-3.862 9.993h-1.462zM56.726 16.836c-1.193 0-2.24-0.247-3.142-0.742-0.902-0.509-1.607-1.2-2.116-2.073-0.509-0.887-0.764-1.898-0.764-3.033s0.24-2.138 0.72-3.011c0.495-0.873 1.164-1.556 2.007-2.051 0.858-0.509 1.818-0.764 2.88-0.764 1.076 0 2.029 0.247 2.858 0.742 0.844 0.48 1.505 1.164 1.985 2.051 0.48 0.873 0.72 1.884 0.72 3.033 0 0.073-0.007 0.153-0.022 0.24 0 0.073 0 0.153 0 0.24h-9.971v-1.156h9.142l-0.611 0.458c0-0.829-0.182-1.564-0.545-2.204-0.349-0.655-0.829-1.164-1.44-1.527s-1.316-0.545-2.116-0.545c-0.785 0-1.491 0.182-2.116 0.545s-1.113 0.873-1.462 1.527c-0.349 0.655-0.524 1.404-0.524 2.247v0.24c0 0.873 0.189 1.644 0.567 2.313 0.393 0.655 0.931 1.171 1.615 1.549 0.698 0.364 1.491 0.545 2.378 0.545 0.698 0 1.345-0.124 1.942-0.371 0.611-0.247 1.135-0.625 1.571-1.135l0.873 1.004c-0.509 0.611-1.149 1.076-1.92 1.396-0.756 0.32-1.593 0.48-2.509 0.48zM65.028 16.727v-11.455h1.484v3.12l-0.153-0.545c0.32-0.873 0.858-1.535 1.615-1.985 0.756-0.465 1.695-0.698 2.815-0.698v1.505c-0.058 0-0.116 0-0.175 0-0.058-0.015-0.116-0.022-0.175-0.022-1.207 0-2.153 0.371-2.836 1.113-0.684 0.727-1.025 1.767-1.025 3.12v5.847h-1.549zM0.305 31.273v-15.273h1.615v13.876h8.553v1.396h-10.167zM17.325 31.382c-1.105 0-2.102-0.247-2.989-0.742-0.873-0.509-1.564-1.2-2.073-2.073-0.509-0.887-0.764-1.898-0.764-3.033 0-1.149 0.255-2.16 0.764-3.033s1.2-1.556 2.073-2.051c0.873-0.495 1.869-0.742 2.989-0.742 1.135 0 2.138 0.247 3.011 0.742 0.887 0.495 1.578 1.178 2.073 2.051 0.509 0.873 0.764 1.884 0.764 3.033 0 1.135-0.255 2.145-0.764 3.033-0.495 0.873-1.185 1.564-2.073 2.073-0.887 0.495-1.891 0.742-3.011 0.742zM17.325 30.007c0.829 0 1.564-0.182 2.204-0.545 0.64-0.378 1.142-0.902 1.505-1.571 0.378-0.684 0.567-1.469 0.567-2.356 0-0.902-0.189-1.687-0.567-2.356-0.364-0.669-0.865-1.185-1.505-1.549-0.64-0.378-1.367-0.567-2.182-0.567s-1.542 0.189-2.182 0.567c-0.64 0.364-1.149 0.88-1.527 1.549s-0.567 1.455-0.567 2.356c0 0.887 0.189 1.673 0.567 2.356 0.378 0.669 0.887 1.193 1.527 1.571 0.64 0.364 1.36 0.545 2.16 0.545zM28.961 31.273l-5.084-11.455h1.615l4.669 10.625h-0.764l4.735-10.625h1.527l-5.105 11.455h-1.593zM42.386 31.382c-1.193 0-2.24-0.247-3.142-0.742-0.902-0.509-1.607-1.2-2.116-2.073-0.509-0.887-0.764-1.898-0.764-3.033s0.24-2.138 0.72-3.011c0.495-0.873 1.164-1.556 2.007-2.051 0.858-0.509 1.818-0.764 2.88-0.764 1.076 0 2.029 0.247 2.858 0.742 0.844 0.48 1.505 1.164 1.985 2.051 0.48 0.873 0.72 1.884 0.72 3.033 0 0.073-0.007 0.153-0.022 0.24 0 0.073 0 0.153 0 0.24h-9.971v-1.156h9.142l-0.611 0.458c0-0.829-0.182-1.564-0.545-2.204-0.349-0.655-0.829-1.164-1.44-1.527s-1.316-0.545-2.116-0.545c-0.785 0-1.491 0.182-2.116 0.545s-1.113 0.873-1.462 1.527c-0.349 0.655-0.524 1.404-0.524 2.247v0.24c0 0.873 0.189 1.644 0.567 2.313 0.393 0.655 0.931 1.171 1.615 1.549 0.698 0.364 1.491 0.545 2.378 0.545 0.698 0 1.345-0.124 1.942-0.371 0.611-0.247 1.135-0.625 1.571-1.135l0.873 1.004c-0.509 0.611-1.149 1.076-1.92 1.396-0.756 0.32-1.593 0.48-2.509 0.48zM50.688 31.273v-11.455h1.484v3.12l-0.153-0.545c0.32-0.873 0.858-1.535 1.615-1.985 0.756-0.465 1.695-0.698 2.815-0.698v1.505c-0.058 0-0.116 0-0.175 0-0.058-0.015-0.116-0.022-0.175-0.022-1.207 0-2.153 0.371-2.836 1.113-0.684 0.727-1.025 1.767-1.025 3.12v5.847h-1.549z"></path>
</symbol>
</defs>
</svg>
